<svg width="140" height="128" viewBox="0 0 140 128" fill="none" xmlns="http://www.w3.org/2000/svg">
<path d="M95.6625 0C78.5725 0 59.5225 13.73 59.5225 30.66V34.21C55.9525 33.32 52.2325 32.83 48.4025 32.78C22.0825 32.48 0.272513 53.61 0.00251316 79.68C-0.267487 106.08 21.2525 127.56 47.8325 127.56C74.4125 127.56 95.6625 106.34 95.6625 80.17C95.6625 79.54 95.6825 78.91 95.6625 78.28V0ZM48.3625 100.3C37.2725 100.3 28.2925 91.4 28.2925 80.41C28.2925 69.42 37.2825 60.52 48.3625 60.52C59.4425 60.52 68.4325 69.42 68.4325 80.41C68.4325 91.4 59.4425 100.3 48.3625 100.3Z" fill="#0D003B"/>
<path d="M136.5 11.6667C138.394 11.6667 140 10.1373 140 8.33331C140 6.52943 138.394 5 136.5 5C134.606 5 133 6.52943 133 8.33331C133 10.1373 134.606 11.6667 136.5 11.6667ZM136.5 33C138.23 33 139.588 31.7451 139.588 29.7451V16.6471C139.588 14.6471 138.23 13.3922 136.5 13.3922C134.771 13.3922 133.412 14.6471 133.412 16.6471V29.7451C133.412 31.7451 134.771 33 136.5 33Z" fill="#0D003B"/>
<path d="M118.277 20.9983C118.277 18.2357 116.796 15.9184 114.322 15.9184C111.849 15.9184 110.361 18.2071 110.361 20.9983C110.361 23.7895 111.842 26.078 114.322 26.078C116.803 26.078 118.277 23.7603 118.277 20.9983ZM112.938 32.9948C106.821 32.9948 103 27.995 103 20.9983C103 14.0016 106.821 9.00916 112.745 9.00916C114.908 8.8998 116.996 9.77436 118.432 11.3851C118.921 9.99302 120.247 9.07475 121.727 9.09657C122.742 9.10385 123.705 9.54116 124.386 10.2919C125.067 11.0425 125.4 12.041 125.304 13.0468V23.7531C125.186 24.9123 125.556 26.0637 126.326 26.9456C127.089 27.747 128 28.3665 128 29.992C128 31.8506 126.807 32.9364 124.46 32.9364C122.386 33.0312 120.454 31.8941 119.551 30.0284C117.966 32.0325 115.5 33.1332 112.945 32.9871L112.938 32.9948Z" fill="#0D003B"/>
</svg>
