<svg width="102" height="96" viewBox="0 0 102 96" fill="none" xmlns="http://www.w3.org/2000/svg">
<path d="M73.7935 0C60.6104 0 45.9153 10.333 45.9153 23.0743V25.746C43.1615 25.0762 40.2919 24.7074 37.3374 24.6698C17.0343 24.444 0.210215 40.3462 0.00193864 59.9661C-0.206338 79.8344 16.3941 96 36.8977 96C57.4014 96 73.7935 80.0301 73.7935 60.3349C73.7935 59.8608 73.809 59.3866 73.7935 58.9125V0ZM37.3066 75.4845C28.7518 75.4845 21.8247 68.7865 21.8247 60.5155C21.8247 52.2446 28.7595 45.5466 37.3066 45.5466C45.8536 45.5466 52.7885 52.2446 52.7885 60.5155C52.7885 68.7865 45.8536 75.4845 37.3066 75.4845Z" fill="#0D003B"/>
<path d="M91.6572 17.1546C89.5957 17.1546 88.3668 15.5609 88.3668 13.6352C88.3668 11.7094 89.5957 10.1157 91.6572 10.1157C93.7186 10.1157 94.9476 11.5102 94.9476 13.6352C94.9476 15.7601 93.7186 17.1546 91.6572 17.1546ZM88.3271 20.4417C89.2786 21.3713 90.9039 22.0022 92.9654 22.0022C97.8812 22.0022 101.053 18.5159 101.053 13.6352C101.053 8.75444 97.8812 5.26819 92.9654 5.26819C91.0229 5.26819 89.3182 5.83263 88.2478 6.92831C87.8118 5.93223 86.7414 5.33459 85.5124 5.33459C83.8474 5.33459 82.5392 6.39707 82.5392 8.09039V25.09C82.5392 26.7833 83.8474 27.8458 85.5124 27.8458C87.1775 27.8458 88.4857 26.7833 88.4857 25.09V23.3303C88.4857 22.4338 88.446 21.4709 88.3271 20.4417Z" fill="#0D003B"/>
</svg>
