<?xml version="1.0" encoding="UTF-8"?>
<svg data-name="Camada 2" id="Camada_2" viewBox="0 0 225.58 111.38" xmlns="http://www.w3.org/2000/svg">
  <defs>
    <style>
      .cls-1 {
        clip-path: url(#clippath-2);
      }

      .cls-2 {
        clip-path: url(#clippath-1);
      }

      .cls-3 {
        fill: #0d003b;
      }

      .cls-4 {
        clip-path: url(#clippath);
      }

      .cls-5 {
        clip-path: url(#clippath-3);
      }

      .cls-6 {
        fill: url(#linear-gradient);
      }
    </style>
    <clipPath id="clippath">
      <path class="cls-3"
            d="M215.14,98.27c0-3.02-1.59-5.55-4.25-5.55s-4.26,2.5-4.26,5.55,1.59,5.55,4.26,5.55,4.25-2.53,4.25-5.55Zm-5.74,13.1c-6.57,0-10.68-5.46-10.68-13.1s4.11-13.09,10.47-13.09c2.32-.12,4.57,.84,6.11,2.6,.52-1.52,1.95-2.52,3.54-2.5,1.09,.01,2.13,.48,2.86,1.3,.73,.82,1.09,1.91,.99,3.01v11.69c-.13,1.26,.27,2.53,1.1,3.48,.82,.88,1.8,1.55,1.8,3.33,0,2.03-1.28,3.22-3.8,3.22-2.23,.11-4.3-1.14-5.28-3.17-1.7,2.19-4.35,3.39-7.1,3.23Z"/>
    </clipPath>
    <clipPath id="clippath-1">
      <rect class="cls-3" height="644.89" width="1146.47" x="-715.66" y="-373.23"/>
    </clipPath>
    <clipPath id="clippath-2">
      <path class="cls-3"
            d="M45.82,98.27c0-3.02-1.59-5.55-4.25-5.55s-4.26,2.5-4.26,5.55,1.59,5.55,4.26,5.55,4.25-2.53,4.25-5.55Zm-5.74,13.1c-6.57,0-10.68-5.46-10.68-13.1s4.11-13.09,10.47-13.09c2.32-.12,4.57,.84,6.11,2.6,.52-1.52,1.95-2.52,3.54-2.5,1.09,.01,2.13,.48,2.86,1.3,.73,.82,1.09,1.91,.99,3.01v11.69c-.13,1.26,.27,2.53,1.1,3.48,.82,.88,1.8,1.55,1.8,3.33,0,2.03-1.28,3.22-3.8,3.22-2.23,.11-4.3-1.14-5.28-3.17-1.7,2.19-4.35,3.39-7.1,3.23Z"/>
    </clipPath>
    <clipPath id="clippath-3">
      <rect class="cls-3" height="644.89" width="1146.47" x="-884.99" y="-373.23"/>
    </clipPath>
    <linearGradient gradientUnits="userSpaceOnUse" id="linear-gradient" x1="83.48" x2="140.28" y1="37.86" y2="37.86">
      <stop offset="0" stop-color="#00c8ff"/>
      <stop offset=".3" stop-color="#078be2"/>
      <stop offset="1" stop-color="#1700a2"/>
    </linearGradient>
  </defs>
  <g id="DF-LogoSheet.ai">
    <g id="Row-4">
      <g id="DF-LogoVRT">
        <g>
          <g>
            <path class="cls-3"
                  d="M215.14,98.27c0-3.02-1.59-5.55-4.25-5.55s-4.26,2.5-4.26,5.55,1.59,5.55,4.26,5.55,4.25-2.53,4.25-5.55Zm-5.74,13.1c-6.57,0-10.68-5.46-10.68-13.1s4.11-13.09,10.47-13.09c2.32-.12,4.57,.84,6.11,2.6,.52-1.52,1.95-2.52,3.54-2.5,1.09,.01,2.13,.48,2.86,1.3,.73,.82,1.09,1.91,.99,3.01v11.69c-.13,1.26,.27,2.53,1.1,3.48,.82,.88,1.8,1.55,1.8,3.33,0,2.03-1.28,3.22-3.8,3.22-2.23,.11-4.3-1.14-5.28-3.17-1.7,2.19-4.35,3.39-7.1,3.23Z"/>
            <g class="cls-4">
              <g>
                <rect class="cls-3" height="644.89" width="1146.47" x="-715.66" y="-373.23"/>
                <g class="cls-2">
                  <rect class="cls-3" height="27.66" width="28.05" x="198.13" y="84.47"/>
                </g>
              </g>
            </g>
          </g>
          <g>
            <path class="cls-3"
                  d="M45.82,98.27c0-3.02-1.59-5.55-4.25-5.55s-4.26,2.5-4.26,5.55,1.59,5.55,4.26,5.55,4.25-2.53,4.25-5.55Zm-5.74,13.1c-6.57,0-10.68-5.46-10.68-13.1s4.11-13.09,10.47-13.09c2.32-.12,4.57,.84,6.11,2.6,.52-1.52,1.95-2.52,3.54-2.5,1.09,.01,2.13,.48,2.86,1.3,.73,.82,1.09,1.91,.99,3.01v11.69c-.13,1.26,.27,2.53,1.1,3.48,.82,.88,1.8,1.55,1.8,3.33,0,2.03-1.28,3.22-3.8,3.22-2.23,.11-4.3-1.14-5.28-3.17-1.7,2.19-4.35,3.39-7.1,3.23Z"/>
            <g class="cls-1">
              <g>
                <rect class="cls-3" height="644.89" width="1146.47" x="-884.99" y="-373.23"/>
                <g class="cls-5">
                  <rect class="cls-3" height="27.66" width="28.05" x="28.8" y="84.47"/>
                </g>
              </g>
            </g>
          </g>
          <path class="cls-3"
                d="M26.49,75.73h0c-4.73,0-10.01,3.84-10.01,8.57v.99c-.99-.25-2.02-.39-3.08-.4C6.12,84.8,.07,90.71,0,98s5.88,13.38,13.25,13.38,13.25-5.93,13.25-13.25c0-.18,0-.35,0-.53v-.05s0-2.78,0-2.78v-19.05Zm-13.25,27.97c-2.4,0-4.35-2.49-4.35-5.56s1.95-5.56,4.35-5.56,4.35,2.49,4.35,5.56-1.95,5.56-4.35,5.56Z"/>
          <path class="cls-3"
                d="M82.72,75.73h0c-4.73,0-10.01,3.84-10.01,8.57v.99c-.99-.25-2.02-.39-3.08-.4-7.29-.09-13.33,5.82-13.4,13.11-.07,7.38,5.88,13.38,13.25,13.38s13.25-5.93,13.25-13.25c0-.18,0-.35,0-.53v-.05s0-2.78,0-2.78v-19.05Zm-13.25,27.97c-2.4,0-4.35-2.49-4.35-5.56s1.95-5.56,4.35-5.56,4.35,2.49,4.35,5.56-1.95,5.56-4.35,5.56Z"/>
          <path class="cls-3"
                d="M85.62,98.28c0-7.12,4.52-13.1,12.22-13.1s12.22,5.98,12.22,13.1-4.52,13.1-12.22,13.1-12.22-5.98-12.22-13.1Zm16.54,0c0-3.02-1.61-5.51-4.32-5.51s-4.32,2.5-4.32,5.51,1.61,5.51,4.32,5.51,4.32-2.5,4.32-5.51Z"/>
          <path class="cls-3"
                d="M111.88,105.82c0-1.77,1.09-3.02,3.28-3.02,2.7,0,3.38,2.13,7.02,2.13,1.51,0,2.65-.36,2.65-1.25,0-1.4-3.02-1.61-6.08-2.6-3.17-.99-6.34-2.86-6.34-7.7s3.28-8.22,9.46-8.22c4.52,0,9,1.77,9,5.3,0,1.87-1.3,2.91-3.22,2.91-2.55,0-2.86-1.77-5.67-1.77-1.35,0-2.24,.47-2.24,1.2,0,1.25,2.13,1.61,4.68,2.34,3.54,.99,7.75,2.65,7.75,8.11s-4.16,8.11-10.19,8.11c-5.04,0-10.09-1.87-10.09-5.57Z"/>
          <path class="cls-3"
                d="M147.36,107.03c0,2.67-1.73,4.35-3.93,4.35s-3.93-1.68-3.93-4.35v-12.58h-1.15c-2.62,0-4.25-1.68-4.25-3.83s1.63-3.83,4.25-3.83h1.15v-1.05c0-6.24,3.41-10.02,9.33-10.02,3.88,0,5.4,1.57,5.4,3.88s-1.57,3.78-4.25,3.78c-1.52,0-2.62,.89-2.62,3.04v.37h2.67c2.52,0,4.2,1.73,4.2,3.83s-1.68,3.83-4.2,3.83h-2.67v12.58Z"/>
          <path class="cls-3"
                d="M167.36,104.21c3.02,0,3.33-1.87,5.72-1.87,2.24,0,3.48,1.61,3.48,3.38,0,3.38-4.42,5.67-9.26,5.67-7.8,0-12.06-6.03-12.06-13.16s4.21-13.05,11.54-13.05c7.96,0,11.49,6.97,11.49,11.6,0,3.02-1.46,4.06-3.9,4.06h-11.08c.36,2.18,1.66,3.38,4.06,3.38Zm2.7-8.89c-.36-2.08-1.51-3.38-3.28-3.38s-2.91,1.3-3.28,3.38h6.55Z"/>
          <path class="cls-3"
                d="M194.08,84.95c2.47,0,4.16,1.63,4.16,4.05s-1.84,4-4.26,4c-2.84,0-4.9,1.74-4.9,5.58v8.42c0,2.68-1.74,4.37-3.95,4.37s-3.95-1.69-3.95-4.37v-17.58c0-2.69,1.74-4.37,3.95-4.37s3.63,1.58,3.9,3.47c1.11-2.21,2.84-3.58,5.05-3.58Z"/>
        </g>
        <path class="cls-6"
              d="M140.27,0h0c-10.15,0-21.45,8.15-21.45,18.2v2.11c-2.12-.53-4.33-.82-6.6-.85-15.62-.18-28.57,12.36-28.73,27.84-.16,15.67,12.61,28.42,28.39,28.42s28.39-12.6,28.39-28.13c0-.38,.01-.75,0-1.12v-.11s0-5.9,0-5.9V0Zm-28.08,59.55c-6.58,0-11.92-5.29-11.92-11.81s5.33-11.81,11.92-11.81,11.92,5.29,11.92,11.81-5.33,11.81-11.92,11.81Z"/>
      </g>
    </g>
  </g>
</svg>
